<svg width="20" height="14" viewBox="0 0 20 14" fill="none" xmlns="http://www.w3.org/2000/svg">
<path d="M14.6657 8.56689C13.316 8.56689 12.218 9.66489 12.218 11.0146C12.218 12.3642 13.316 13.4622 14.6657 13.4622C16.0156 13.4622 17.1134 12.3642 17.1134 11.0146C17.1134 9.66489 16.0154 8.56689 14.6657 8.56689ZM14.6657 12.2384C13.9908 12.2384 13.4419 11.6895 13.4419 11.0146C13.4419 10.3396 13.9908 9.79073 14.6657 9.79073C15.3406 9.79073 15.8895 10.3396 15.8895 11.0146C15.8895 11.6895 15.3406 12.2384 14.6657 12.2384Z" fill="#353535"/>
<path d="M6.30266 8.56689C4.95298 8.56689 3.85498 9.66489 3.85498 11.0146C3.85498 12.3642 4.95298 13.4622 6.30266 13.4622C7.65233 13.4622 8.75033 12.3642 8.75033 11.0146C8.75033 9.66489 7.65233 8.56689 6.30266 8.56689ZM6.30266 12.2384C5.62772 12.2384 5.07882 11.6895 5.07882 11.0146C5.07882 10.3396 5.62772 9.79073 6.30266 9.79073C6.9774 9.79073 7.52649 10.3396 7.52649 11.0146C7.52649 11.6895 6.97759 12.2384 6.30266 12.2384Z" fill="#353535"/>
<path d="M16.3141 1.56061C16.21 1.35398 15.9985 1.22363 15.7672 1.22363H12.5444V2.44747H15.3898L17.0561 5.76161L18.1498 5.21168L16.3141 1.56061Z" fill="#353535"/>
<path d="M12.8299 10.4231H8.19971V11.6469H12.8299V10.4231Z" fill="#353535"/>
<path d="M4.46683 10.4231H2.34554C2.00754 10.4231 1.73364 10.697 1.73364 11.035C1.73364 11.373 2.00758 11.6469 2.34554 11.6469H4.46686C4.80486 11.6469 5.07876 11.373 5.07876 11.035C5.07876 10.697 4.80482 10.4231 4.46683 10.4231Z" fill="#353535"/>
<path d="M19.2895 6.68213L18.0859 5.13193C17.9703 4.98262 17.7918 4.89531 17.6027 4.89531H13.1561V0.6119C13.1561 0.273902 12.8821 0 12.5442 0H2.34554C2.00754 0 1.73364 0.27394 1.73364 0.6119C1.73364 0.949859 2.00758 1.2238 2.34554 1.2238H11.9322V5.50721C11.9322 5.84521 12.2062 6.11911 12.5441 6.11911H17.303L18.1942 7.26706V10.4229H16.5012C16.1632 10.4229 15.8893 10.6969 15.8893 11.0348C15.8893 11.3728 16.1632 11.6467 16.5012 11.6467H18.8061C19.1441 11.6467 19.418 11.3728 19.418 11.0348V7.05744C19.418 6.92159 19.3727 6.78942 19.2895 6.68213Z" fill="#353535"/>
<path d="M4.42625 7.32251H1.61141C1.27341 7.32251 0.999512 7.59645 0.999512 7.93441C0.999512 8.27241 1.27345 8.54631 1.61141 8.54631H4.42621C4.76421 8.54631 5.03811 8.27237 5.03811 7.93441C5.03815 7.59645 4.76421 7.32251 4.42625 7.32251Z" fill="#353535"/>
<path d="M5.83361 4.91553H0.6119C0.27394 4.91553 0 5.18947 0 5.52746C0 5.86546 0.27394 6.13936 0.6119 6.13936H5.83361C6.1716 6.13936 6.44551 5.86542 6.44551 5.52746C6.44551 5.18951 6.1716 4.91553 5.83361 4.91553Z" fill="#353535"/>
<path d="M6.83312 2.50879H1.61141C1.27341 2.50879 0.999512 2.78273 0.999512 3.12069C0.999512 3.45869 1.27345 3.73259 1.61141 3.73259H6.83312C7.17112 3.73259 7.44502 3.45865 7.44502 3.12069C7.44506 2.78273 7.17112 2.50879 6.83312 2.50879Z" fill="#353535"/>
</svg>
