<svg width="37" height="27" viewBox="0 0 37 27" fill="none" xmlns="http://www.w3.org/2000/svg">
<path d="M27.9441 16.71C25.3724 16.71 23.2803 18.8021 23.2803 21.3738C23.2803 23.9455 25.3724 26.0377 27.9441 26.0377C30.5163 26.0377 32.608 23.9455 32.608 21.3738C32.608 18.8021 30.5158 16.71 27.9441 16.71ZM27.9441 23.7058C26.6581 23.7058 25.6122 22.6599 25.6122 21.3738C25.6122 20.0878 26.6581 19.0419 27.9441 19.0419C29.2302 19.0419 30.2761 20.0878 30.2761 21.3738C30.2761 22.6599 29.2302 23.7058 27.9441 23.7058Z" fill="#393D41"/>
<path d="M12.0096 16.71C9.43786 16.71 7.3457 18.8021 7.3457 21.3738C7.3457 23.9455 9.43786 26.0377 12.0096 26.0377C14.5813 26.0377 16.6734 23.9455 16.6734 21.3738C16.6734 18.8021 14.5813 16.71 12.0096 16.71ZM12.0096 23.7058C10.7235 23.7058 9.67763 22.6599 9.67763 21.3738C9.67763 20.0878 10.7235 19.0419 12.0096 19.0419C13.2952 19.0419 14.3415 20.0878 14.3415 21.3738C14.3415 22.6599 13.2956 23.7058 12.0096 23.7058Z" fill="#393D41"/>
<path d="M31.0851 3.36058C30.8869 2.96688 30.4838 2.71851 30.0431 2.71851H23.9023V5.05044H29.3241L32.499 11.3653L34.583 10.3174L31.0851 3.36058Z" fill="#393D41"/>
<path d="M24.4465 20.2468H15.624V22.5788H24.4465V20.2468Z" fill="#393D41"/>
<path d="M8.51183 20.2468H4.46988C3.82586 20.2468 3.30396 20.7688 3.30396 21.4128C3.30396 22.0568 3.82593 22.5787 4.46988 22.5787H8.5119C9.15593 22.5787 9.67783 22.0567 9.67783 21.4128C9.67783 20.7687 9.15586 20.2468 8.51183 20.2468Z" fill="#393D41"/>
<path d="M36.7554 13.1188L34.462 10.165C34.2416 9.88048 33.9016 9.71413 33.5412 9.71413H25.0686V1.5524C25.0686 0.908375 24.5466 0.386475 23.9026 0.386475H4.46988C3.82586 0.386475 3.30396 0.908447 3.30396 1.5524C3.30396 2.19636 3.82593 2.71833 4.46988 2.71833H22.7366V10.8801C22.7366 11.5241 23.2586 12.046 23.9026 12.046H32.9703L34.6683 14.2333V20.2466H31.4424C30.7984 20.2466 30.2765 20.7686 30.2765 21.4125C30.2765 22.0566 30.7985 22.5785 31.4424 22.5785H35.8342C36.4782 22.5785 37.0001 22.0565 37.0002 21.4125V13.8339C37.0002 13.5751 36.9139 13.3232 36.7554 13.1188Z" fill="#393D41"/>
<path d="M8.43394 14.3391H3.07047C2.42644 14.3391 1.90454 14.8611 1.90454 15.505C1.90454 16.1491 2.42651 16.671 3.07047 16.671H8.43386C9.07789 16.671 9.59979 16.149 9.59979 15.505C9.59987 14.8611 9.07789 14.3391 8.43394 14.3391Z" fill="#393D41"/>
<path d="M11.1155 9.75293H1.16593C0.521973 9.75293 0 10.2749 0 10.9189C0 11.563 0.521973 12.0849 1.16593 12.0849H11.1155C11.7595 12.0849 12.2814 11.5629 12.2814 10.9189C12.2814 10.275 11.7595 9.75293 11.1155 9.75293Z" fill="#393D41"/>
<path d="M13.02 5.16687H3.07047C2.42644 5.16687 1.90454 5.68884 1.90454 6.3328C1.90454 6.97683 2.42651 7.49873 3.07047 7.49873H13.02C13.6641 7.49873 14.186 6.97676 14.186 6.3328C14.186 5.68884 13.6641 5.16687 13.02 5.16687Z" fill="#393D41"/>
</svg>
