<svg width="19" height="19" viewBox="0 0 19 19" fill="none" xmlns="http://www.w3.org/2000/svg">
<path d="M18.9481 5.58607C18.9036 4.57652 18.7403 3.88247 18.5065 3.28106C18.2652 2.64268 17.894 2.07114 17.4077 1.59602C16.9326 1.1135 16.3573 0.738565 15.7263 0.501076C15.1214 0.267212 14.431 0.103956 13.4215 0.0594448C12.4044 0.011164 12.0815 0 9.50188 0C6.92227 0 6.59938 0.011164 5.58607 0.0556751C4.57652 0.100186 3.88247 0.263587 3.28121 0.497306C2.64268 0.738565 2.07114 1.10973 1.59602 1.59602C1.1135 2.07114 0.73871 2.64645 0.501076 3.27744C0.267212 3.88247 0.103956 4.57275 0.0594448 5.5823C0.011164 6.59938 0 6.92227 0 9.50188C0 12.0815 0.011164 12.4044 0.0556751 13.4177C0.100186 14.4272 0.263587 15.1213 0.497451 15.7227C0.73871 16.3611 1.1135 16.9326 1.59602 17.4077C2.07114 17.8903 2.64645 18.2652 3.27744 18.5027C3.88247 18.7366 4.57275 18.8998 5.58244 18.9443C6.59561 18.989 6.91865 19 9.49826 19C12.0779 19 12.4008 18.989 13.4141 18.9443C14.4236 18.8998 15.1177 18.7366 15.7189 18.5027C16.9958 18.009 18.0054 16.9995 18.4991 15.7227C18.7328 15.1177 18.8962 14.4272 18.9407 13.4177C18.9852 12.4044 18.9964 12.0815 18.9964 9.50188C18.9964 6.92227 18.9926 6.59938 18.9481 5.58607ZM17.2371 13.3435C17.1962 14.2714 17.0404 14.7725 16.9104 15.1065C16.5912 15.9342 15.9342 16.5912 15.1065 16.9104C14.7725 17.0404 14.2678 17.1962 13.3435 17.237C12.3413 17.2816 12.0408 17.2926 9.50565 17.2926C6.97055 17.2926 6.66622 17.2816 5.6677 17.237C4.73978 17.1962 4.2387 17.0404 3.90465 16.9104C3.49274 16.7582 3.11781 16.5169 2.81348 16.2015C2.49799 15.8934 2.25673 15.5222 2.10449 15.1103C1.97458 14.7762 1.81872 14.2714 1.77798 13.3472C1.73332 12.3451 1.7223 12.0444 1.7223 9.50928C1.7223 6.97418 1.73332 6.66985 1.77798 5.67147C1.81872 4.74355 1.97458 4.24247 2.10449 3.90842C2.25673 3.49637 2.49799 3.12158 2.81725 2.8171C3.1252 2.50161 3.49637 2.26035 3.90842 2.10826C4.24247 1.97835 4.74732 1.82249 5.67147 1.7816C6.67362 1.73709 6.97432 1.72593 9.50928 1.72593C12.0482 1.72593 12.3487 1.73709 13.3472 1.7816C14.2752 1.82249 14.7762 1.97835 15.1103 2.10826C15.5222 2.26035 15.8971 2.50161 16.2015 2.8171C16.5169 3.1252 16.7582 3.49637 16.9104 3.90842C17.0404 4.24247 17.1962 4.74717 17.2371 5.67147C17.2816 6.67362 17.2928 6.97418 17.2928 9.50928C17.2928 12.0444 17.2816 12.3413 17.2371 13.3435Z" fill="white"/>
<path d="M9.50194 4.62097C6.80736 4.62097 4.62109 6.80709 4.62109 9.50182C4.62109 12.1966 6.80736 14.3827 9.50194 14.3827C12.1967 14.3827 14.3828 12.1966 14.3828 9.50182C14.3828 6.80709 12.1967 4.62097 9.50194 4.62097ZM9.50194 12.6679C7.75383 12.6679 6.33586 11.2501 6.33586 9.50182C6.33586 7.75357 7.75383 6.33574 9.50194 6.33574C11.2502 6.33574 12.668 7.75357 12.668 9.50182C12.668 11.2501 11.2502 12.6679 9.50194 12.6679Z" fill="white"/>
<path d="M15.7156 4.42803C15.7156 5.05727 15.2054 5.56748 14.576 5.56748C13.9467 5.56748 13.4365 5.05727 13.4365 4.42803C13.4365 3.79864 13.9467 3.28857 14.576 3.28857C15.2054 3.28857 15.7156 3.79864 15.7156 4.42803Z" fill="white"/>
</svg>
