<svg width="22" height="22" viewBox="0 0 22 22" fill="none" xmlns="http://www.w3.org/2000/svg">
<path d="M11.2495 11.6179C10.4216 11.6179 9.61227 11.3724 8.92388 10.9125C8.23549 10.4525 7.69895 9.79872 7.38212 9.03382C7.06529 8.26892 6.98239 7.42725 7.14391 6.61524C7.30543 5.80323 7.70411 5.05734 8.28954 4.47192C8.87497 3.88649 9.62085 3.4878 10.4329 3.32629C11.2449 3.16477 12.0866 3.24766 12.8515 3.5645C13.6163 3.88133 14.2701 4.41786 14.7301 5.10625C15.1901 5.79464 15.4356 6.60397 15.4356 7.43189C15.4356 8.5421 14.9945 9.60684 14.2095 10.3919C13.4245 11.1769 12.3597 11.6179 11.2495 11.6179ZM11.2495 4.6412C10.6976 4.6412 10.158 4.80487 9.69909 5.11152C9.24017 5.41816 8.88248 5.85401 8.67125 6.36394C8.46003 6.87387 8.40477 7.43499 8.51245 7.97633C8.62013 8.51767 8.88592 9.01493 9.2762 9.40521C9.66649 9.7955 10.1637 10.0613 10.7051 10.169C11.2464 10.2766 11.8075 10.2214 12.3175 10.0102C12.8274 9.79894 13.2633 9.44125 13.5699 8.98232C13.8765 8.52339 14.0402 7.98384 14.0402 7.43189C14.0402 6.69176 13.7462 5.98193 13.2228 5.45857C12.6995 4.93522 11.9897 4.6412 11.2495 4.6412Z" fill="#7EB928"/>
<path d="M11.2496 21.3854C9.70248 21.3844 8.17482 21.0403 6.77662 20.378C5.37841 19.7157 4.14445 18.7516 3.16357 17.5552L2.80078 17.1087L3.16357 16.6691C4.14528 15.4743 5.37961 14.5118 6.77776 13.851C8.17592 13.1901 9.70316 12.8474 11.2496 12.8474C12.7961 12.8474 14.3233 13.1901 15.7215 13.851C17.1196 14.5118 18.3539 15.4743 19.3357 16.6691L19.6984 17.1087L19.3357 17.5552C18.3548 18.7516 17.1208 19.7157 15.7226 20.378C14.3244 21.0403 12.7967 21.3844 11.2496 21.3854ZM4.62869 17.1157C5.47722 18.024 6.50343 18.7483 7.64359 19.2435C8.78376 19.7387 10.0135 19.9942 11.2566 19.9942C12.4996 19.9942 13.7294 19.7387 14.8696 19.2435C16.0097 18.7483 17.036 18.024 17.8845 17.1157C17.036 16.2073 16.0097 15.483 14.8696 14.9878C13.7294 14.4927 12.4996 14.2371 11.2566 14.2371C10.0135 14.2371 8.78376 14.4927 7.64359 14.9878C6.50343 15.483 5.47722 16.2073 4.62869 17.1157Z" fill="#7EB928"/>
<path d="M11.2494 21.3853C8.87228 21.3869 6.56542 20.5791 4.70853 19.0949C2.85163 17.6107 1.55537 15.5386 1.03307 13.2195C0.510783 10.9004 0.79359 8.47266 1.83495 6.33574C2.87631 4.19882 4.61417 2.48011 6.76249 1.46248C8.91082 0.444854 11.3416 0.188955 13.6547 0.736902C15.9679 1.28485 18.0255 2.60399 19.4891 4.47721C20.9526 6.35043 21.7348 8.6661 21.7068 11.0431C21.6789 13.4201 20.8426 15.7167 19.3355 17.5551C18.3546 18.7515 17.1206 19.7156 15.7224 20.3779C14.3242 21.0402 12.7966 21.3843 11.2494 21.3853ZM11.2494 1.85043C9.45561 1.85043 7.70206 2.38237 6.21055 3.37896C4.71903 4.37556 3.55654 5.79206 2.87007 7.44935C2.1836 9.10663 2.00399 10.9303 2.35395 12.6896C2.70391 14.449 3.56772 16.0651 4.83615 17.3335C6.10458 18.6019 7.72065 19.4657 9.48002 19.8157C11.2394 20.1656 13.063 19.986 14.7203 19.2996C16.3776 18.6131 17.7941 17.4506 18.7907 15.9591C19.7873 14.4676 20.3192 12.714 20.3192 10.9202C20.3192 8.51474 19.3636 6.20781 17.6627 4.5069C15.9618 2.80599 13.6549 1.85043 11.2494 1.85043Z" fill="#7EB928"/>
<path d="M3.70068 17.1157C3.70068 17.1157 10.7263 24.9645 17.8774 17.8971L18.7983 17.1157C18.7983 17.1157 12.8263 10.9203 6.76347 14.6389L3.70068 17.1157Z" fill="#7EB928"/>
<path d="M11.2496 10.9201C13.1762 10.9201 14.738 9.3583 14.738 7.43173C14.738 5.50516 13.1762 3.94336 11.2496 3.94336C9.32303 3.94336 7.76123 5.50516 7.76123 7.43173C7.76123 9.3583 9.32303 10.9201 11.2496 10.9201Z" fill="#7EB928"/>
</svg>
