<svg width="160" height="19" viewBox="0 0 160 19" fill="none" xmlns="http://www.w3.org/2000/svg">
<path d="M134.418 14.395L133.626 18.439H137.322L138.119 14.395H134.418Z" fill="white"/>
<path d="M16.6405 4.15626C16.9922 2.21591 16.4396 0.856412 14.1287 0.856412H6.94192L6.2606 4.25673H12.3831C12.7598 4.25673 12.8603 4.45767 12.8101 4.88468L12.0283 8.94119H8.22921L8.79122 6.11545L0 10.3352H6.54003L5.97803 13.161L11.7488 10.3917L10.989 14.4075C10.9793 14.497 10.9519 14.5837 10.9086 14.6626C10.8652 14.7416 10.8067 14.8112 10.7365 14.8675C10.6662 14.9238 10.5854 14.9656 10.4989 14.9907C10.4124 15.0157 10.3218 15.0234 10.2324 15.0134H4.17269L3.51649 18.4389H10.7221C13.0141 18.4389 14.1225 17.0794 14.4898 15.139L16.6405 4.15626ZM28.5149 18.4389L31.9435 0.856412H23.9058C21.5636 0.856412 20.405 2.21591 20.0534 4.15626L16.0126 18.4389H19.9686L23.6452 4.88781C23.6452 4.80292 23.6623 4.71889 23.6956 4.6408C23.7289 4.56271 23.7777 4.49219 23.839 4.43349C23.9004 4.3748 23.973 4.32915 24.0525 4.29931C24.1319 4.26947 24.2166 4.25605 24.3014 4.25987H27.5354L24.7096 18.442L28.5149 18.4389ZM41.2622 10.2756L40.4804 14.5582C40.4617 14.7447 40.3741 14.9175 40.2348 15.0429C40.0954 15.1683 39.9143 15.2373 39.7269 15.2363H36.5526L37.6358 9.64763H40.8603C41.212 9.64763 41.3627 9.82346 41.2622 10.2756ZM45.0895 9.82032C45.4694 7.82973 44.8635 6.44512 42.5212 6.44512H38.2135L39.3219 0.856412H35.5699L32.1445 18.4389H40.2041C42.5715 18.4389 43.6578 17.0794 44.0314 15.139L45.0895 9.82032ZM57.5354 4.25359L55.4192 15.0103H51.4129L54.1602 4.88468C54.1601 4.80006 54.1772 4.71629 54.2103 4.63842C54.2434 4.56055 54.2919 4.49018 54.3529 4.43153C54.4139 4.37288 54.4861 4.32716 54.5652 4.29712C54.6443 4.26708 54.7287 4.25335 54.8132 4.25673L57.5354 4.25359ZM59.1837 15.0103L61.9436 0.856412H54.4082C52.066 0.856412 50.9074 2.21591 50.5527 4.15626L47.4914 15.0134H45.9216L45.212 18.4389H59.6547L60.3329 15.0134L59.1837 15.0103ZM72.2952 4.88468L70.4553 14.4043C70.4333 14.5788 70.3459 14.7385 70.2107 14.851C70.0754 14.9635 69.9025 15.0204 69.7269 15.0103H67.055C66.7034 15.0103 66.5778 14.8596 66.628 14.4043L68.5119 4.88468C68.5621 4.45453 68.763 4.25673 69.19 4.25673H71.8619C72.1759 4.25673 72.3894 4.45767 72.2889 4.88468H72.2952ZM76.1194 4.15312C76.4962 2.21277 75.9153 0.853271 73.548 0.853271H68.7599C66.4177 0.853271 65.2842 2.21277 64.8541 4.15312L62.7662 15.1421C62.4114 17.0825 62.9922 18.442 65.2779 18.442H70.1131C72.4805 18.442 73.5888 17.0825 73.9436 15.1421L76.1194 4.15312ZM86.8478 4.88468L85.9404 9.28028C85.84 9.75752 85.6265 9.90823 85.2371 9.90823H82.0189L83.1775 4.25673H86.3769C86.7536 4.25673 86.9043 4.45767 86.8541 4.88468H86.8478ZM90.6594 4.15312C91.0613 2.21277 90.4585 0.853271 88.1131 0.853271H80.1037L76.7034 18.4389H80.3549L81.3878 13.3494H85.7835C88.1006 13.3494 89.0833 11.9396 89.5134 9.99928L90.6594 4.15312ZM98.3675 5.46238L97.8086 12.3133H95.1618L98.1131 5.46238H98.3675ZM101.507 18.4357L101.962 0.853271H96.8792L88.4679 18.4357H92.5213L93.9248 15.1861H97.5731L97.3094 18.4389L101.507 18.4357ZM115.438 4.25359L113.344 15.0134H109.325L112.069 4.88781C112.069 4.80292 112.086 4.71889 112.12 4.6408C112.153 4.56271 112.202 4.49219 112.263 4.43349C112.324 4.3748 112.397 4.32915 112.476 4.29931C112.556 4.26947 112.641 4.25605 112.725 4.25987L115.438 4.25359ZM117.112 15.0134L119.853 0.856412H112.317C109.975 0.856412 108.816 2.21591 108.465 4.15626L105.4 15.0134H103.831L103.127 18.4389H117.57L118.251 15.0134H117.112ZM130.612 4.88781L128.729 14.4075C128.73 14.4938 128.713 14.5795 128.679 14.6586C128.644 14.7378 128.593 14.8085 128.529 14.8661C128.464 14.9236 128.388 14.9666 128.306 14.992C128.223 15.0174 128.136 15.0247 128.05 15.0134H125.353C124.977 15.0134 124.876 14.8627 124.926 14.4075L126.738 4.88781C126.864 4.45767 127.052 4.25987 127.419 4.25987H130.138C130.493 4.25987 130.669 4.46081 130.594 4.88781H130.612ZM131.849 0.856412H127.014C124.719 0.856412 123.614 2.21591 123.209 4.15626L121.093 15.1453C120.716 17.0856 121.297 18.4451 123.605 18.4451H128.465C130.807 18.4451 131.89 17.0856 132.267 15.1453L134.433 4.15626C134.788 2.21591 134.207 0.856412 131.84 0.856412" fill="white"/>
<path d="M160 6.13123H157.3L155.476 15.5316C155.426 15.7765 155.338 15.8644 155.146 15.8644H153.219C153.043 15.8644 152.989 15.7765 153.036 15.5316L154.864 6.13123H152.167L150.261 15.9429C149.972 17.4185 150.374 18.4389 152.145 18.4389H155.237C157.015 18.4389 157.809 17.4185 158.098 15.9429L160 6.13123Z" fill="white"/>
<path d="M146.65 8.9538L146.022 12.0213C145.953 12.3541 145.796 12.4609 145.533 12.4609H143.291L144.095 8.5111H146.311C146.575 8.5111 146.679 8.65239 146.644 8.9538H146.65ZM147.52 6.12805H141.957L139.592 18.4389H142.132L142.858 14.8785H144.113L144.657 18.4389H147.482L146.726 14.7748C147.765 14.4923 148.261 13.6351 148.503 12.5331L149.31 8.45145C149.589 7.09195 149.168 6.14061 147.539 6.14061" fill="white"/>
</svg>
