<svg width="150" height="18" viewBox="0 0 150 18" fill="none" xmlns="http://www.w3.org/2000/svg">
<path d="M126.055 13.6091L125.315 17.3895H128.77L129.515 13.6091H126.055Z" fill="#C62438"/>
<path d="M15.9545 4.03789C16.2833 2.22402 15.7667 0.953131 13.6065 0.953131H6.88811L6.25121 4.13181H11.9746C12.3268 4.13181 12.4207 4.31965 12.3738 4.71882L11.6429 8.51093H8.09149L8.61687 5.86937L0.398682 9.8141H6.51242L5.98705 12.4557L11.3817 9.86693L10.6714 13.6209C10.6623 13.7046 10.6367 13.7856 10.5962 13.8594C10.5557 13.9332 10.501 13.9983 10.4353 14.0509C10.3696 14.1035 10.2941 14.1427 10.2133 14.1661C10.1324 14.1895 10.0477 14.1967 9.96406 14.1873H4.29939L3.68596 17.3895H10.4219C12.5645 17.3895 13.6006 16.1186 13.944 14.3048L15.9545 4.03789ZM27.055 17.3895L30.26 0.953131H22.7463C20.5567 0.953131 19.4737 2.22402 19.145 4.03789L15.3675 17.3895H19.0657L22.5027 4.72176C22.5026 4.64239 22.5186 4.56384 22.5497 4.49084C22.5809 4.41785 22.6265 4.35192 22.6838 4.29705C22.7412 4.24218 22.809 4.19951 22.8833 4.17161C22.9576 4.14372 23.0368 4.13117 23.1161 4.13474H26.1392L23.4977 17.3924L27.055 17.3895ZM38.9713 9.75833L38.2405 13.7618C38.223 13.9361 38.1411 14.0977 38.0108 14.2149C37.8806 14.3321 37.7113 14.3966 37.5361 14.3957H34.5687L35.5813 9.17132H38.5956C38.9244 9.17132 39.0653 9.33568 38.9713 9.75833ZM42.5492 9.33275C42.9043 7.47192 42.3378 6.17755 40.1483 6.17755H36.1214L37.1575 0.953131H33.6501L30.4479 17.3895H37.9822C40.1952 17.3895 41.2108 16.1186 41.5601 14.3048L42.5492 9.33275ZM54.1838 4.12887L52.2055 14.1844H48.4604L51.0286 4.71882C51.0285 4.63972 51.0444 4.56142 51.0754 4.48862C51.1064 4.41583 51.1517 4.35004 51.2087 4.29521C51.2658 4.24039 51.3333 4.19765 51.4072 4.16957C51.4812 4.14149 51.56 4.12864 51.6391 4.13181L54.1838 4.12887ZM55.7247 14.1844L58.3046 0.953131H51.2605C49.0709 0.953131 47.9879 2.22402 47.6562 4.03789L44.7945 14.1873H43.327L42.6636 17.3895H56.165L56.7989 14.1873L55.7247 14.1844ZM67.9815 4.71882L66.2616 13.6179C66.241 13.7811 66.1593 13.9303 66.0329 14.0355C65.9064 14.1407 65.7448 14.1939 65.5806 14.1844H63.0829C62.7542 14.1844 62.6368 14.0435 62.6837 13.6179L64.4448 4.71882C64.4917 4.31672 64.6796 4.13181 65.0788 4.13181H67.5765C67.87 4.13181 68.0696 4.31965 67.9757 4.71882H67.9815ZM71.5564 4.03495C71.9087 2.22108 71.3657 0.950195 69.1526 0.950195H64.6766C62.4871 0.950195 61.4275 2.22108 61.0254 4.03495L59.0736 14.3077C58.7419 16.1216 59.2849 17.3924 61.4217 17.3924H65.9417C68.1547 17.3924 69.1908 16.1216 69.5224 14.3077L71.5564 4.03495ZM81.5856 4.71882L80.7373 8.82792C80.6434 9.27405 80.4438 9.41493 80.0799 9.41493H77.0714L78.1545 4.13181H81.1453C81.4975 4.13181 81.6384 4.31965 81.5914 4.71882H81.5856ZM85.1487 4.03495C85.5244 2.22108 84.9609 0.950195 82.7684 0.950195H75.281L72.1024 17.3895H75.5158L76.4815 12.6318H80.5906C82.7566 12.6318 83.6753 11.3139 84.0774 9.50004L85.1487 4.03495ZM92.3543 5.25887L91.8319 11.6632H89.3576L92.1166 5.25887H92.3543ZM95.2894 17.3866L95.715 0.950195H90.9631L83.1001 17.3866H86.8892L88.2012 14.3488H91.6118L91.3652 17.3895L95.2894 17.3866ZM108.312 4.12887L106.355 14.1873H102.598L105.163 4.72176C105.163 4.64239 105.179 4.56384 105.21 4.49084C105.241 4.41785 105.287 4.35192 105.344 4.29705C105.401 4.24218 105.469 4.19951 105.544 4.17161C105.618 4.14372 105.697 4.13117 105.776 4.13474L108.312 4.12887ZM109.877 14.1873L112.439 0.953131H105.395C103.205 0.953131 102.122 2.22402 101.794 4.03789L98.9289 14.1873H97.4613L96.8039 17.3895H110.305L110.942 14.1873H109.877ZM122.497 4.72176L120.736 13.6209C120.738 13.7016 120.722 13.7817 120.69 13.8557C120.658 13.9297 120.61 13.9958 120.549 14.0496C120.489 14.1034 120.418 14.1436 120.341 14.1673C120.264 14.1911 120.182 14.1979 120.102 14.1873H117.581C117.229 14.1873 117.135 14.0465 117.182 13.6209L118.876 4.72176C118.993 4.31965 119.169 4.13474 119.513 4.13474H122.054C122.386 4.13474 122.55 4.32259 122.48 4.72176H122.497ZM123.654 0.953131H119.134C116.988 0.953131 115.955 2.22402 115.577 4.03789L113.598 14.3106C113.246 16.1245 113.789 17.3954 115.946 17.3954H120.49C122.679 17.3954 123.692 16.1245 124.044 14.3106L126.069 4.03789C126.401 2.22402 125.858 0.953131 123.645 0.953131" fill="#C10230"/>
<path d="M149.97 5.88403H147.445L145.74 14.6716C145.693 14.9006 145.611 14.9827 145.432 14.9827H143.63C143.466 14.9827 143.416 14.9006 143.46 14.6716L145.168 5.88403H142.647L140.865 15.0561C140.595 16.4356 140.971 17.3895 142.626 17.3895H145.517C147.178 17.3895 147.921 16.4356 148.191 15.0561L149.97 5.88403Z" fill="#C62438"/>
<path d="M137.49 8.52266L136.903 11.3902C136.838 11.7013 136.691 11.8011 136.445 11.8011H134.349L135.1 8.10882H137.173C137.419 8.10882 137.516 8.2409 137.484 8.52266H137.49ZM138.303 5.8811H133.102L130.892 17.3895H133.266L133.944 14.0611H135.118L135.626 17.3895H138.267L137.56 13.9643C138.532 13.7001 138.995 12.8988 139.221 11.8686L139.976 8.05305C140.237 6.78217 139.844 5.89284 138.32 5.89284" fill="#C62438"/>
</svg>
