<svg width="23" height="23" viewBox="0 0 23 23" fill="none" xmlns="http://www.w3.org/2000/svg">
<g clip-path="url(#clip0)">
<path d="M21.2342 19.6447H2.04818C1.29128 19.6447 0.677734 19.0311 0.677734 18.2742C0.677734 17.5174 1.29128 16.9038 2.04818 16.9038H21.2343C21.9911 16.9038 22.6047 17.5174 22.6047 18.2742C22.6046 19.0311 21.9911 19.6447 21.2342 19.6447Z" fill="#7EB928"/>
<path d="M21.2342 12.7926H2.04818C1.29128 12.7926 0.677734 12.1791 0.677734 11.4222C0.677734 10.6653 1.29128 10.0518 2.04818 10.0518H21.2343C21.9911 10.0518 22.6047 10.6653 22.6047 11.4222C22.6047 12.1791 21.9911 12.7926 21.2342 12.7926Z" fill="#7EB928"/>
<path d="M21.2342 5.94034H2.04818C1.29128 5.94034 0.677734 5.3268 0.677734 4.5699C0.677734 3.813 1.29128 3.19946 2.04818 3.19946H21.2343C21.9911 3.19946 22.6047 3.813 22.6047 4.5699C22.6047 5.3268 21.9911 5.94034 21.2342 5.94034Z" fill="#7EB928"/>
</g>
<defs>
<clipPath id="clip0">
<rect width="21.9269" height="21.9269" fill="white" transform="translate(0.677734 0.458496)"/>
</clipPath>
</defs>
</svg>
