<svg width="15" height="19" viewBox="0 0 15 19" fill="none" xmlns="http://www.w3.org/2000/svg">
<path d="M7.26645 0C4.63103 0 2.47046 2.13683 2.47046 4.79599C2.47046 7.43141 4.60729 9.59198 7.26645 9.59198C9.90187 9.59198 12.0624 7.45515 12.0624 4.79599C12.0624 2.13683 9.90187 0 7.26645 0ZM7.26645 7.17024C5.93687 7.17024 4.86845 6.10183 4.86845 4.77224C4.86845 3.44266 5.93687 2.37425 7.26645 2.37425C8.59603 2.37425 9.66444 3.44266 9.66444 4.77224C9.66444 6.10183 8.59603 7.17024 7.26645 7.17024Z" fill="white"/>
<path d="M14.3178 10.328C13.8904 9.54453 12.8933 9.25962 12.1098 9.71073C8.85704 11.5389 5.67554 11.5389 2.42281 9.71073C1.63931 9.25962 0.642126 9.54453 0.21476 10.328C-0.236347 11.1115 0.0485629 12.1087 0.832066 12.5361C1.94796 13.1771 3.0876 13.6282 4.22725 13.9369L1.92422 16.2399C1.28317 16.881 1.28317 17.9019 1.92422 18.5192C2.56527 19.1603 3.5862 19.1603 4.2035 18.5192L7.26629 15.4564L10.3291 18.5192C10.9701 19.1603 11.991 19.1603 12.6084 18.5192C13.2494 17.8782 13.2494 16.8572 12.6084 16.2399L10.3053 13.9369C11.445 13.6282 12.5846 13.1771 13.7005 12.5361C14.484 12.085 14.7689 11.1115 14.3178 10.328Z" fill="white"/>
</svg>
