<svg width="26" height="26" viewBox="0 0 26 26" fill="none" xmlns="http://www.w3.org/2000/svg">
<path d="M8.9 12.67C10.05 13.51 11.47 14 13 14C16.742 14 20 10.761 20 7.00001C20 3.14 16.86 0 13 0C9.14 0 6 3.14 6 7.00001C6 9.33001 7.14 11.4 8.9 12.67Z" fill="#393D41"/>
<path d="M19.16 13.55C17.55 15.0701 15.38 16.0001 13 16.0001C10.62 16.0001 8.45 15.0701 6.84 13.55C2.77 15.7501 0 20.0601 0 25.0001C0 25.5501 0.45 26.0001 1 26.0001H25C25.55 26.0001 26 25.5501 26 25.0001C26 20.0601 23.23 15.7501 19.16 13.55Z" fill="#393D41"/>
</svg>
