<svg width="19" height="14" viewBox="0 0 19 14" fill="none" xmlns="http://www.w3.org/2000/svg">
<path d="M18.6085 2.0816C18.3895 1.26766 17.7478 0.626073 16.934 0.406897C15.4471 0 9.49981 0 9.49981 0C9.49981 0 3.55263 0 2.06579 0.391386C1.26766 0.610418 0.610273 1.2678 0.391241 2.0816C0 3.56828 0 6.65154 0 6.65154C0 6.65154 0 9.7503 0.391241 11.2215C0.610418 12.0353 1.252 12.677 2.06594 12.8962C3.56828 13.3031 9.49996 13.3031 9.49996 13.3031C9.49996 13.3031 15.4471 13.3031 16.934 12.9117C17.7479 12.6927 18.3895 12.0509 18.6087 11.2371C18.9999 9.7503 18.9999 6.66719 18.9999 6.66719C18.9999 6.66719 19.0156 3.56828 18.6085 2.0816Z" fill="white"/>
<path d="M7.60645 9.49997L12.552 6.65154L7.60645 3.8031V9.49997Z" fill="#393E42"/>
</svg>
