<svg width="20" height="12" viewBox="0 0 20 12" fill="none" xmlns="http://www.w3.org/2000/svg">
<path d="M16.1226 6.49922C15.8084 6.10253 15.8983 5.92604 16.1226 5.57145C16.1266 5.5674 18.7197 1.98425 18.9868 0.76909L18.9884 0.76828C19.1212 0.325446 18.9884 0 18.3464 0H16.2221C15.6813 0 15.432 0.279301 15.2984 0.591795C15.2984 0.591795 14.2168 3.18079 12.6867 4.85903C12.1929 5.34396 11.9646 5.4994 11.695 5.4994C11.5623 5.4994 11.3558 5.34396 11.3558 4.90113V0.76828C11.3558 0.237203 11.2044 0 10.7567 0H7.41646C7.07725 0 6.87567 0.247728 6.87567 0.478455C6.87567 0.982007 7.64071 1.09777 7.72005 2.51452V5.58845C7.72005 6.26201 7.5978 6.38588 7.3266 6.38588C6.60446 6.38588 4.85174 3.78635 3.81307 0.811188C3.60339 0.233965 3.39857 0.00080951 2.85373 0.00080951H0.728612C0.122245 0.00080951 0 0.280111 0 0.592604C0 1.14473 0.722135 3.88998 3.35809 7.51684C5.11485 9.9925 7.5889 11.334 9.8395 11.334C11.1923 11.334 11.3574 11.036 11.3574 10.5236C11.3574 8.15802 11.2352 7.93458 11.9128 7.93458C12.2269 7.93458 12.7677 8.09002 14.0306 9.28413C15.4741 10.7001 15.7113 11.334 16.5192 11.334H18.6436C19.2491 11.334 19.5559 11.036 19.3795 10.4483C18.9755 9.21208 16.2456 6.66923 16.1226 6.49922Z" fill="white"/>
</svg>
